<svg xmlns="http://www.w3.org/2000/svg" width="50" height="51" fill="none" viewBox="0 0 50 51"><path fill="#005C82" d="M25 0C38.806 0 50 11.2508 50 25.1269C50 39.0029 38.806 50.2538 25 50.2538C11.194 50.2538 0 39.0029 0 25.1269C0 19.057 2.14207 13.4871 5.70757 9.14421L6.38014 8.30155V25.1269C6.38014 35.461 14.7135 43.8366 25 43.8366C35.2865 43.8366 43.6153 35.461 43.6153 25.1269C43.6153 14.7928 35.2819 6.41715 25 6.41715V0Z"/><path fill="#6BC8E8" d="M18.7811 0.583374V26.0807C18.7811 29.03 21.1627 31.4237 24.0971 31.4237L36.0973 31.4514C33.9046 35.3314 29.754 37.9473 25 37.9473C18.2467 37.9473 12.7188 32.6691 12.272 25.9973V3.33821C12.272 3.33821 15.0451 1.39825 18.7811 0.583374Z"/></svg>